<?xml version="1.0" encoding="utf-8"?>
<!-- Generator: Adobe Illustrator 19.1.0, SVG Export Plug-In . SVG Version: 6.00 Build 0)  -->
<svg version="1.1" id="Calque_1" xmlns="http://www.w3.org/2000/svg" xmlns:xlink="http://www.w3.org/1999/xlink" x="0px" y="0px"
	 viewBox="0 0 283.5 70.5" style="enable-background:new 0 0 283.5 70.5;" xml:space="preserve">
<style type="text/css">
	.st0{fill:#231F20;}
	.st1{fill:#BE1E2D;}
</style>
<g>
	<g>
		<path class="st0" d="M84.4,36c-9.8,0-17.8-7.9-17.8-17.7c0-9.8,7.9-17.6,17.7-17.7c9.7,0,17.7,7.8,17.7,17.5
			C102,28,94.2,35.9,84.4,36z M77.9,12.7c0-2.3-1.8-4.2-4.1-4.1c-2.2,0-4.1,1.8-4.1,4.1c0,2.2,1.8,4.1,4,4.1
			C76.1,16.8,77.9,15,77.9,12.7z M73.8,28.3c2.3,0,4.1-1.8,4.1-4c0-2.3-1.8-4.2-4.1-4.2c-2.2,0-4.1,1.9-4.1,4.1
			C69.7,26.4,71.5,28.3,73.8,28.3z M94.1,8.9c-2.3,0-4.1,1.7-4.1,4c0,2.3,1.8,4.2,4.1,4.2c2.2,0,4.2-2,4.1-4.2
			C98.2,10.7,96.4,8.9,94.1,8.9z M88.1,30.5c0-2.3-1.8-4.1-4-4.1c-2.3,0-4.2,1.7-4.2,4.1c0,2.3,1.8,4.1,4.1,4.2
			C86.2,34.6,88.1,32.7,88.1,30.5z M84,10.9c2.3,0.1,4.2-1.8,4.3-4c0.1-2.2-1.9-4.1-4.1-4.2c-2.2,0-4,1.7-4.1,3.9
			C80,8.9,81.7,10.8,84,10.9z M90,24.3c0,2.3,1.7,4.1,3.9,4.2c2.3,0.1,4.2-1.8,4.3-4c0.1-2.2-1.8-4.2-4.1-4.2
			C91.9,20.2,90.1,22.1,90,24.3z M78,18.2c-0.1,3.4,2.7,6.2,6.1,6.3c3.3,0,6.1-2.8,6.2-6.1c0-3.3-2.8-6.2-6.2-6.2
			C80.8,12.1,78.1,14.8,78,18.2z"/>
		<path class="st0" d="M24.6,17.5c2.2-1.4,3.4-3.6,3.4-6.2c0-6.3-4.4-10.1-11.9-10.1H0v34h16.1c8.4,0,12.9-3.5,12.9-10.3
			C29,22.6,27.7,19.1,24.6,17.5z M7.4,8h8.8c3.5,0,4.5,2.2,4.5,3.4c0,1.9-1.5,2.9-4.5,2.9H7.4V8z M16.1,28H7.4v-7.1h8.8
			c2.2,0,5.5,1.4,5.5,3.8C21.6,27.9,17.1,28,16.1,28z"/>
		<path class="st0" d="M63,12.6c0-5.5-3.9-11.4-12.4-11.5c-2.6,0-5.2,0-7.8,0c-2.6,0-5.2,0-7.8,0h-0.6v34h7.5V24.2h5l9.5,10.9h8.3
			v-1.3l-9.3-10.5C60.3,21.8,63,18,63,12.6z M50.6,17.3h-8.7V8.2h8.7c3.7,0,5,2.5,5,4.6C55.6,14.8,54.3,17.3,50.6,17.3z"/>
		<polygon class="st0" points="139.1,23.3 131.4,1.1 126.4,1.1 119,23.3 111.7,1.1 103.4,1.1 115.9,35.1 122,35.1 126.2,24.5 
			129,15.9 131.8,24.4 136,35.1 142.2,35.1 154.4,1.1 146.1,1.1 		"/>
		<path class="st0" d="M172.6,13.8c-4-0.5-6.7-1.3-6.7-3.5c0-2.3,2.3-3.7,6.1-3.7c3.4,0,6.2,1.7,7.2,3.3l0.3,0.5l6-3.1l-0.3-0.6
			C183,2.4,178.4,0,171.8,0c-6.6,0.1-13.3,3.2-13.3,10.2c0,7.9,6.8,9.8,13.4,10.5c6.3,0.7,7,2.7,7,4.2c0,3.9-5.3,4.3-6.9,4.3
			c-4.2,0-7.4-1.8-8.6-4.8l-0.3-0.7l-6.3,3.3l0.2,0.5c2.3,5.7,7.2,8.4,14.8,8.4c6.9,0,14.4-2.9,14.4-11.1
			C186.3,16.6,179.7,14.7,172.6,13.8z"/>
		<path class="st0" d="M192,35.1h8.8c0.3-1.1,0.6-2,1-2.9c0.7-1.5,1.8-2.4,3.1-2.9c0.4-0.1,0.7-0.2,1.1-0.2c0.5,0,1,0,1.5,0.1
			c0.8,0.2,1.6,0.6,2.3,1.2c0.7,0.5,1.3,1.2,1.8,2c0.5,0.8,0.9,1.7,1.3,2.6c0,0,0,0,0,0h5v-7.4h-18.3v-6.1h17.7v-7h-17.7V8.4h18.3
			V1.1H192V35.1z"/>
		<path class="st0" d="M244.5,23.2c4.9-1.4,7.7-5.2,7.7-10.6c0-5.5-3.9-11.4-12.4-11.5c-2.6,0-5.2,0-7.8,0c-2.6,0-5.2,0-7.8,0h-0.6
			v31.2c0.1,0,0.3-0.1,0.4-0.1l0,0l0,0c0.6-0.1,1.3,0,1.8,0.2c0.6,0.2,1.2,0.5,1.6,1c0.5,0.4,0.8,1,1.1,1.7h2.5V24.2h5l9.5,10.9h3.2
			c0.4-0.7,1.1-1.2,1.9-1.4c0.4-0.1,0.8-0.2,1.1-0.2c0.5,0,1.1,0,1.6,0.2c0.2,0.1,0.3,0.1,0.5,0.2v0L244.5,23.2z M239.8,17.3h-8.7
			V8.2h8.7c3.7,0,5,2.5,5,4.6C244.8,14.8,243.5,17.3,239.8,17.3z"/>
	</g>
	<g>
		<path class="st1" d="M279.7,37.2c-1.5,2.4-0.9,1.6-1.5,2.4c-0.6,0.9-1.3,1.7-2,2.6c-0.7,0.8-1.5,1.6-2.3,2.3
			c-0.8,0.7-1.7,1.2-2.5,1.5c-0.3,0.1-0.5,0.2-0.8,0.2c-0.3,0-0.5,0-0.8-0.1c-0.3-0.1-0.5-0.2-0.8-0.4c-0.3-0.2-0.6-0.4-1-0.8
			c1.1-0.8,2.1-1.7,3-2.6c0.9-1,1.5-2,2-3.1c0.5-1.1,0.8-2.1,1-3.1c0.1-1,0-2-0.3-2.9c-0.3-0.8-0.7-1.5-1.2-2.1
			c-0.5-0.6-1.1-1-1.8-1.3c-0.7-0.3-1.4-0.4-2.2-0.5c-0.8,0-1.6,0.1-2.4,0.4c-1,0.3-1.8,0.8-2.5,1.5c-0.7,0.6-1.3,1.4-1.7,2.2
			c-0.4,0.8-0.8,1.7-1,2.7c-0.2,1-0.3,1.9-0.4,2.9c0,1,0,1.9,0.2,2.9c0.2,1,0.4,1.8,0.6,2.6c0.2,0.5,0.4,1.1,0.7,1.5c0,0,0,0,0,0
			c-0.2,0.4-0.4,0.8-0.7,1.2c-0.2,0.4-0.5,0.7-0.8,1c-0.3,0.3-0.6,0.6-0.8,0.8c-0.3,0.2-0.6,0.4-0.9,0.5c-0.3,0.1-0.6-0.1-1-0.5
			s-0.7-1-1-1.8c-0.3-1-0.6-1.9-0.8-2.9c-0.2-0.9-0.4-1.8-0.6-2.7c-0.2-0.9-0.4-1.8-0.6-2.7c-0.2-0.9-0.5-1.9-0.8-2.9
			c-0.1-0.4-0.4-0.7-0.7-1l0,0l0,0c-0.2-0.1-0.3-0.2-0.5-0.3c-0.2-0.1-0.3-0.1-0.5-0.1c-0.1,0-0.1,0-0.2,0c-0.1,0-0.2,0-0.3,0
			c0,0,0,0-0.1,0c0,0-0.1,0-0.1,0c-0.2,0-0.5,0.1-0.7,0.2c-0.6,0.2-1,0.6-1.3,1.1c-0.3,0.5-0.5,1.2-0.8,1.9
			c-0.2,0.7-0.5,1.6-0.7,2.5s-0.4,1.8-0.6,2.7c-0.2,0.9-0.4,1.6-0.5,2.2c-0.1,0.6-0.2,0.9-0.2,1l-0.3-0.2c0,0,0-0.1,0-0.2
			c0-0.1,0-0.3-0.1-0.7c-0.1-0.5-0.1-1-0.2-1.5c0-0.5-0.1-1-0.1-1.5c-0.1-0.5-0.1-1-0.2-1.6c-0.1-0.5-0.2-1.1-0.4-1.6
			c-0.2-0.6-0.6-1.1-1.2-1.3c-0.6-0.2-1.1-0.2-1.7,0c-0.6,0.2-1.1,0.6-1.5,1.2c-0.3,0.5-0.6,1.2-0.8,1.9c-0.2,0.7-0.4,1.6-0.7,2.5
			c-0.2,0.9-0.4,1.8-0.6,2.7c-0.2,0.8-0.3,1.6-0.4,2.2s-0.2,0.9-0.2,1l-0.3-0.2c-0.2-1-0.3-1.9-0.5-2.8c-0.1-0.4-0.1-0.8-0.2-1.2
			c-0.1-0.4-0.2-0.8-0.2-1.2c-0.1-0.4-0.2-0.7-0.3-1c-0.1-0.3-0.2-0.6-0.3-0.9c-0.2-0.4-0.3-0.8-0.4-1c-0.1-0.2-0.3-0.4-0.5-0.5
			c-0.2-0.1-0.5-0.1-0.8,0s-0.8,0.2-1.3,0.4c-0.4,0.1-0.6,0.2-0.9,0.4c-0.2,0.1-0.4,0.3-0.5,0.5c-0.1,0.2-0.2,0.5-0.2,0.8
			c0,0.3,0,0.7,0,1.2c0,0.5,0,1.1,0.1,1.9c0.1,0.8,0.2,1.6,0.3,2.5s0.3,1.8,0.4,2.8c0.2,1,0.3,1.9,0.5,2.9c0.1,0.7,0.3,1.4,0.4,2
			c-0.3,0.6-0.7,1.2-1.1,1.8c-0.5,0.7-1,1.4-1.5,2c-0.5,0.6-1,1-1.5,1.1c-0.4,0.2-0.8,0.1-1.1-0.3c-0.3-0.3-0.5-0.8-0.7-1.5
			c-0.2-0.7-0.4-1.4-0.6-2.3c-0.1-0.9-0.3-1.8-0.3-2.7c-0.1-0.9-0.2-1.9-0.2-2.8c-0.1-1-0.1-1.8-0.1-2.7c0-0.8-0.1-1.6-0.2-2.2
			c-0.1-0.6-0.1-1.1-0.3-1.4c-0.1-0.4-0.3-0.6-0.6-0.8c-0.3-0.1-0.7-0.1-1.3,0.1c-0.3,0.1-0.7,0.3-1.1,0.5c-0.4,0.2-0.7,0.5-1.1,0.8
			c-0.3,0.3-0.6,0.6-0.8,1c-0.2,0.4-0.3,0.8-0.3,1.2c0.1,1.2,0.2,2.4,0.3,3.8c0.1,1.4,0.2,2.8,0.4,4.2c0.1,0.5,0.1,1.1,0.2,1.6
			c-0.2,0.3-0.4,0.7-0.6,1c-0.4,0.6-0.8,1.3-1.2,1.9c-0.4,0.6-0.9,1.2-1.4,1.7c-0.5,0.5-0.9,1-1.4,1.5s-0.9,0.8-1.3,1.1
			c-0.4,0.3-0.8,0.5-1.1,0.6c-0.5,0.2-1,0.2-1.4,0.2c-0.4,0-0.9-0.1-1.3-0.4c-0.4-0.2-0.7-0.6-1.1-1.1c-0.3-0.5-0.6-1.1-0.9-1.9
			c-0.1-0.3-0.2-0.6-0.3-1c-0.1-0.4-0.2-0.7-0.4-1.1c-0.1-0.4-0.2-0.8-0.4-1.2c-0.1-0.4-0.2-0.8-0.4-1.2c-0.3-0.9-0.5-1.8-0.8-2.7
			c0.2-0.6,0.4-1.2,0.7-1.9c0.2-0.7,0.5-1.4,0.7-2.1l8.3-2.8c0.3-0.1,0.6-0.4,0.8-0.8c0.2-0.4,0.2-0.9,0-1.4c-0.1-0.4-0.3-0.7-0.5-1
			c-0.2-0.2-0.5-0.3-0.8-0.2c-0.2,0.1-0.6,0.2-0.9,0.3c-0.4,0.1-0.8,0.2-1.2,0.4c-0.4,0.1-0.9,0.3-1.4,0.4c-0.5,0.1-0.9,0.3-1.3,0.4
			c-0.4,0.1-0.8,0.2-1.1,0.3s-0.5,0.2-0.7,0.2c0.2-1,0.4-2,0.6-3c0.2-1,0.3-2,0.4-2.9c0.1-0.9,0.1-1.8,0-2.7
			c-0.1-0.9-0.2-1.6-0.5-2.3c0-0.1-0.1-0.2-0.2-0.4c0,0,0,0,0,0c-0.1-0.3-0.3-0.7-0.4-1c-0.2-0.3-0.3-0.6-0.5-0.9
			c-0.5-0.7-1-1.3-1.5-1.7c-0.6-0.5-1.1-0.8-1.8-0.9c-0.3-0.1-0.6-0.1-0.9-0.1c0,0-0.1,0-0.1,0c0,0-0.1,0-0.1,0
			c-0.3,0-0.5,0.1-0.8,0.2c0,0,0,0,0,0c-1,0.3-1.7,1.1-2.3,2.2c-0.2,0.3-0.3,0.7-0.5,1.1c0,0,0,0,0,0.1c-0.3,0.9-0.6,1.9-0.8,3.1
			c-0.3,1.7-0.4,3.5-0.3,5.5c0,2,0.2,4.1,0.5,6.1c-0.1,0.1-0.4,0.2-0.8,0.3c-0.4,0.1-0.8,0.3-1.3,0.4c-0.5,0.2-5.9,1.8-6.4,2
			c-0.5,0.2-1,0.4-1.4,0.6c-0.4,0.2-0.7,0.5-1,0.7c-0.2,0.2-0.3,0.5-0.2,0.8c0,0.1,0.1,0.3,0.2,0.5c0.1,0.2,0.2,0.3,0.3,0.5
			c0.1,0.1,0.3,0.2,0.6,0.3c0.2,0.1,0.5,0,0.9,0c0.8-0.2,6.3-1.8,6.8-1.9c0.4-0.1,0.8-0.1,1.1-0.2c0.3,0,0.6-0.1,0.8-0.1
			c0.3,0,0.6-0.1,1.1-0.2c0.2,1,0.4,2,0.7,3c0.3,1,0.5,1.9,0.8,2.8c0.8,2.2,1.6,4.2,2.5,5.8c0.9,1.7,1.8,3,2.8,4.1
			c1,1.1,2,1.8,3.1,2.1c1.1,0.4,2.1,0.4,3.2,0c0.5-0.2,1.1-0.5,1.7-0.9c0.6-0.4,1.2-1,1.9-1.7c0.7-0.7,1.5-1.5,2.4-2.5
			c0.6-0.6,1.2-1.4,1.9-2.1c0.2,0.5,0.4,1,0.7,1.4c0.3,0.5,0.7,0.9,1.1,1.1c0.4,0.3,1,0.4,1.5,0.4c0.6,0,1.2-0.1,2-0.3
			c0.8-0.3,1.7-0.7,2.5-1.4c0.8-0.6,1.6-1.3,2.3-2.1c0.7-0.7,1.3-1.4,1.8-2.1c0,0,0,0.1,0,0.1c0.2,0.5,0.5,1,0.9,1.3
			c0.3,0.4,0.7,0.6,1.2,0.7c0.4,0.1,1,0.1,1.6-0.1c0.5-0.2,0.8-0.4,1.2-0.7c0.3-0.3,0.5-0.9,0.6-1.5c0.3-2.3,0.5-4.3,0.7-5.8
			c0.2-1.5,0.3-2.8,0.4-3.8c0.1-1,0.2-1.7,0.3-2.2c0.1-0.5,0.2-0.9,0.3-1.2l0.3-0.1c0.2,1.4,0.5,2.7,0.7,3.9c0.1,0.5,0.2,1,0.3,1.6
			c0.1,0.5,0.2,1,0.3,1.5c0.1,0.5,0.2,0.9,0.3,1.2c0.1,0.4,0.2,0.6,0.2,0.8c0.2,0.4,0.3,0.9,0.5,1.4c0.2,0.5,0.5,0.9,0.7,1.2
			c0.3,0.3,0.6,0.6,1,0.8c0.4,0.2,0.8,0.2,1.2,0c0.6-0.2,1.1-0.5,1.5-0.9c0.4-0.4,0.7-0.9,0.8-1.6l0.5-12.6l0.3-0.1
			c0.2,1.1,0.5,2.1,0.8,3.2c0.3,1,0.6,2,0.9,2.9c0.3,1,0.7,1.8,1.1,2.6c0.4,0.8,0.8,1.4,1.2,2c0.4,0.5,0.9,0.9,1.3,1.1
			s1,0.2,1.5,0.1c1-0.4,1.9-0.8,2.7-1.4c0.7-0.6,1.4-1.2,1.9-1.9s1-1.4,1.5-2.1c0.2-0.3,0.4-0.6,0.6-0.9c0.3,0.2,0.6,0.5,0.9,0.7
			c1,0.6,2,1,3.2,1.1c1.2,0.1,2.4,0,3.8-0.5c0.9-0.3,1.7-0.7,2.5-1.2c0.8-0.5,1.5-1,2.2-1.6c0.7-0.6,1.3-1.2,1.9-1.9
			c0.6-0.7,1.1-1.3,1.6-2c1.1-1.5,2.5-4.1,2.8-4.9S281.1,34.8,279.7,37.2z M208.3,41.4c-0.1,1-0.2,1.9-0.4,3s-0.3,2-0.5,2.8
			c-0.2,0.1-0.5,0.1-0.7,0.2c-0.2,0.1-0.4,0.1-0.7,0.1c-0.1-1.3-0.3-2.6-0.4-3.9c-0.1-1.3-0.2-2.6-0.2-3.7c0-1.1,0.1-2.1,0.2-2.9
			c0.2-0.8,0.4-1.3,0.8-1.4c0.3-0.1,0.5-0.1,0.7,0c0.2,0.1,0.4,0.2,0.5,0.3c0.1,0.1,0.2,0.3,0.3,0.5s0.2,0.4,0.2,0.5
			c0.2,0.5,0.2,1.1,0.2,1.9C208.4,39.5,208.4,40.4,208.3,41.4z M266.2,41.5c-0.1-0.3-0.2-0.7-0.3-1.2c-0.1-0.5-0.2-0.9-0.3-1.4
			c-0.1-0.5-0.1-1-0.1-1.6c0-0.5,0.1-1,0.3-1.5c0.2-0.5,0.4-0.9,0.8-1.3c0.4-0.4,0.8-0.7,1.5-0.9c0.3-0.1,0.7,0,1.1,0.3
			c0.4,0.3,0.7,0.8,0.9,1.5c0.2,0.5,0.1,1,0,1.6c-0.2,0.6-0.5,1.2-0.9,1.8c-0.4,0.6-0.8,1.1-1.4,1.6C267.3,41,266.8,41.3,266.2,41.5
			z"/>
		<path class="st1" d="M221.5,40.9c0.8,0.4,1.8,0.4,3.1-0.1c0.7-0.3,1.3-0.6,1.8-1c0.4-0.4,0.8-0.8,1-1.3c0.2-0.5,0.3-1,0.3-1.5
			s-0.1-1-0.3-1.5c-0.1-0.3-0.3-0.6-0.4-0.9c-0.1-0.2-0.2-0.3-0.3-0.4c-0.2-0.2-0.3-0.3-0.5-0.4c-0.2-0.1-0.4-0.2-0.6-0.3
			c-0.4-0.1-0.9-0.2-1.3-0.1c0,0,0,0,0,0c-0.2,0-0.3,0-0.5,0.1c-0.3,0.1-0.7,0.1-1,0.2c-0.8,0.3-1.4,0.6-1.9,1.1
			c-0.5,0.4-0.8,0.9-1,1.4c-0.2,0.5-0.3,0.9-0.3,1.4c0,0.5,0.1,0.9,0.2,1.2C220.1,39.9,220.6,40.6,221.5,40.9z"/>
	</g>
</g>
</svg>
